<?xml version="1.0" standalone="no"?>
<!DOCTYPE svg PUBLIC "-//W3C//DTD SVG 20010904//EN"
 "http://www.w3.org/TR/2001/REC-SVG-20010904/DTD/svg10.dtd">
<svg version="1.0" xmlns="http://www.w3.org/2000/svg"
 width="512.000000pt" height="512.000000pt" viewBox="0 0 512.000000 512.000000"
 preserveAspectRatio="xMidYMid meet">

<g transform="translate(0.000000,512.000000) scale(0.100000,-0.100000)"
fill="#000000" stroke="none">
<path d="M2395 4604 c-319 -37 -519 -94 -760 -218 -313 -161 -587 -403 -777
-686 -680 -1017 -330 -2395 753 -2968 279 -148 558 -220 890 -229 275 -8 477
20 714 99 662 220 1174 770 1344 1443 172 681 -14 1406 -490 1910 -352 372
-799 594 -1298 645 -96 9 -306 12 -376 4z m-519 -1474 c146 -170 269 -310 274
-310 4 0 81 129 170 288 90 158 174 297 187 310 16 15 37 22 62 22 26 0 44 -7
58 -22 11 -13 77 -124 148 -248 70 -124 145 -255 167 -293 l39 -67 270 315
271 315 42 0 c44 0 75 -22 89 -63 6 -15 -284 -1207 -309 -1270 -18 -47 -16
-47 -783 -47 l-721 0 -29 28 c-27 25 -39 68 -183 642 -84 338 -152 626 -151
640 3 37 47 70 93 70 39 0 41 -1 306 -310z m1405 -1290 c48 -14 71 -41 71 -86
0 -26 -7 -44 -26 -63 l-26 -26 -734 0 -734 0 -26 24 c-49 46 -28 131 37 150
45 13 1392 14 1438 1z"/>
<path d="M2396 2876 c-181 -316 -191 -329 -253 -309 -18 6 -89 80 -207 216
-98 114 -180 206 -182 205 -1 -2 39 -169 89 -371 l92 -367 631 0 632 0 91 366
c50 202 90 368 88 371 -2 2 -80 -86 -173 -195 -93 -110 -182 -207 -197 -216
-34 -21 -76 -14 -104 17 -11 12 -89 144 -173 292 -84 149 -156 273 -159 277
-4 4 -82 -125 -175 -286z"/>
</g>
</svg>
